<svg width="91" height="57" viewBox="0 0 91 57" fill="none" xmlns="http://www.w3.org/2000/svg">
<path d="M44.9595 56.7282C36.8595 56.7282 29.7315 53.7312 24.5475 48.5472C19.3635 52.8402 12.3975 55.9992 8.34752 55.9992C4.70252 55.9992 2.19152 54.3792 0.814524 51.1392C-3.72148 39.8802 11.8305 11.2062 19.2825 4.07815C25.1145 -1.75385 33.1335 -1.02485 37.6695 4.32115C40.5855 7.88515 43.0965 11.2062 45.2835 14.2032C47.8755 10.3962 50.6295 6.91315 52.8165 4.32115C57.3525 -1.02485 65.3715 -1.75385 71.2035 4.07815C78.6555 11.2062 94.2075 39.8802 89.6715 51.1392C88.4565 54.1362 85.8645 55.9992 82.0575 55.9992C78.0885 55.9992 70.6365 53.0832 65.5335 48.6282C60.0255 53.8932 52.8165 56.7282 44.9595 56.7282ZM28.5975 44.4162L28.4355 44.5782C32.5665 48.7092 38.4795 51.1392 44.9595 51.1392C51.4395 51.1392 57.1095 48.7902 61.6455 44.5782C59.1345 41.2572 57.2715 37.4502 57.2715 33.3192C57.2715 22.8702 72.9855 23.2752 72.9855 33.3192C72.9855 37.4502 71.6895 40.9332 69.1785 44.4162C73.7145 48.3042 79.9515 50.4102 82.0575 50.4102C83.5965 50.4102 84.1635 49.9242 84.4875 49.0332C85.8645 45.7122 84.0825 38.0172 79.8705 28.5402C76.1445 20.0352 71.0415 11.7732 67.3155 8.04716C63.8325 4.72615 59.6205 4.96915 57.1095 7.88515C54.7605 10.8012 51.4395 14.9322 48.6045 19.2252C51.9255 24.6522 53.5455 28.8642 53.5455 31.9422C53.5455 43.5252 36.9405 43.2822 36.9405 31.9422C36.9405 28.8642 38.6415 24.6522 41.9625 19.2252C39.6135 15.7422 36.8595 12.0162 33.3765 7.88515C30.8655 4.96915 26.6535 4.72615 23.1705 8.04716C19.4445 11.7732 14.3415 20.0352 10.6155 28.5402C6.40352 38.0172 4.70252 45.7122 5.99852 49.0332C6.32252 49.9242 6.88952 50.4102 8.42852 50.4102C10.7775 50.4102 16.6905 47.9802 21.1455 44.1732C20.3355 42.9582 17.5815 38.9082 17.5815 33.3192C17.5815 27.9732 21.3885 25.1382 25.0335 25.1382C28.9215 25.1382 32.9715 28.2162 32.9715 33.3192C32.9715 38.2602 30.4605 42.0672 28.5975 44.4162ZM65.0475 31.2132C64.1565 31.2132 62.8605 31.4562 62.8605 33.3192C62.8605 35.3442 63.6705 37.6122 65.2905 40.1232C66.6675 37.9362 67.3965 35.6682 67.3965 33.3192C67.3965 31.2942 65.2905 31.2132 65.0475 31.2132ZM25.0335 30.7272C23.4945 30.7272 23.1705 32.1042 23.1705 33.3192C23.1705 36.1542 24.1425 38.3412 25.0335 39.8802C26.2485 38.0172 27.3825 35.9112 27.3825 33.3192C27.3825 31.2942 25.9245 30.7272 25.0335 30.7272ZM45.2835 24.5712C42.9345 28.7832 42.5295 30.9702 42.5295 31.9422C42.5295 35.1012 45.7695 35.6682 47.1465 34.2912C47.7135 33.7242 47.9565 32.9952 47.9565 31.9422C47.9565 30.8892 47.5515 28.7832 45.2835 24.5712Z" fill="url(#paint0_linear_272_380)"/>
<defs>
<linearGradient id="paint0_linear_272_380" x1="0" y1="0" x2="90.486" y2="0" gradientUnits="userSpaceOnUse">
<stop stop-color="#283891"/>
<stop offset="1" stop-color="#4A5DAB"/>
</linearGradient>
</defs>
</svg>
