<svg width="18" height="18" viewBox="0 0 18 18" fill="none" xmlns="http://www.w3.org/2000/svg">
<path d="M12.8972 5.26319C11.6807 4.3569 10.3271 3.82022 8.79463 3.82022C5.51258 3.82022 3.05104 6.28176 0.999756 9.56381C2.09323 11.3134 3.30328 12.8298 4.69206 13.8644" stroke="#ABABAB" stroke-width="1.4625" stroke-linecap="round" stroke-linejoin="round"/>
<path d="M7.15409 15.3084C11.6669 15.7187 14.949 12.8469 17.0002 9.56485C15.9068 7.81529 14.949 7.10332 14.949 7.10332" stroke="#ABABAB" stroke-width="1.4625" stroke-linecap="round" stroke-linejoin="round"/>
<path d="M7.25973 11.1116C7.03116 10.8831 6.84984 10.6117 6.72614 10.3131C6.60244 10.0144 6.53877 9.69432 6.53877 9.37106C6.53877 9.04781 6.60244 8.72772 6.72614 8.42907C6.84984 8.13043 7.03116 7.85907 7.25973 7.63049C7.48831 7.40192 7.75967 7.2206 8.05831 7.0969C8.35696 6.97319 8.67705 6.90952 9.0003 6.90952C9.32356 6.90952 9.64365 6.97319 9.94229 7.0969C10.2409 7.2206 10.5123 7.40192 10.7409 7.63049L9.0003 9.37106L7.25973 11.1116Z" stroke="#ABABAB" stroke-width="1.4625"/>
<line x1="14.9492" y1="4.03424" x2="3.67567" y2="15.3078" stroke="#ABABAB" stroke-width="1.4625" stroke-linecap="round"/>
<path d="M11.9647 10.0858C11.9647 10.0858 12.0167 10.8544 11.3001 11.571C10.5835 12.2876 9.81492 12.2356 9.81492 12.2356" stroke="#ABABAB" stroke-width="1.4625" stroke-linecap="round"/>
</svg>
