<svg width="18" height="18" viewBox="0 0 18 18" fill="none" xmlns="http://www.w3.org/2000/svg">
<path d="M17.6079 8.61592C17.4522 8.3746 13.7404 2.70703 8.99992 2.70703C4.25939 2.70703 0.54751 8.3746 0.3919 8.61569C0.319997 8.72724 0.28125 8.86178 0.28125 8.99988C0.28125 9.13799 0.319997 9.27253 0.3919 9.38408C0.54751 9.6254 4.25939 15.293 8.99992 15.293C13.7404 15.293 17.4522 9.62537 17.6079 9.38428C17.6799 9.27278 17.7188 9.13823 17.7188 9.0001C17.7188 8.86197 17.6799 8.72742 17.6079 8.61592ZM8.99992 13.991C5.50802 13.991 2.48366 10.2293 1.58838 8.99956C2.4825 7.76873 5.50052 4.00902 8.99992 4.00902C12.4917 4.00902 15.5158 7.77004 16.4115 9.00044C15.5173 10.2312 12.4993 13.991 8.99992 13.991Z" fill="#ABABAB"/>
<path d="M9 6.04688C7.37168 6.04688 6.04688 7.37168 6.04688 9C6.04688 10.6283 7.37168 11.9531 9 11.9531C10.6283 11.9531 11.9531 10.6283 11.9531 9C11.9531 7.37168 10.6283 6.04688 9 6.04688ZM9 10.9687C7.91439 10.9687 7.03127 10.0856 7.03127 9C7.03127 7.91442 7.91442 7.03127 9 7.03127C10.0856 7.03127 10.9687 7.91442 10.9687 9C10.9687 10.0856 10.0856 10.9687 9 10.9687Z" fill="#ABABAB" stroke="#ABABAB" stroke-width="0.4"/>
</svg>
